<?xml version="1.0" standalone="no"?>
<!DOCTYPE svg PUBLIC "-//W3C//DTD SVG 20010904//EN"
 "http://www.w3.org/TR/2001/REC-SVG-20010904/DTD/svg10.dtd">
<svg version="1.0" xmlns="http://www.w3.org/2000/svg"
 width="270.000000pt" height="270.000000pt" viewBox="0 0 270.000000 270.000000"
 preserveAspectRatio="xMidYMid meet">
<metadata>
Created by potrace 1.11, written by Peter Selinger 2001-2013
</metadata>
<g transform="translate(0.000000,270.000000) scale(0.100000,-0.100000)"
fill="#000000" stroke="none">
<path d="M468 2398 c-23 -23 -23 -60 0 -80 15 -14 68 -16 396 -16 208 -1 380
-3 382 -5 2 -2 -19 -19 -48 -38 l-53 -34 -180 -5 c-177 -5 -180 -5 -191 -29
-15 -29 -1 -77 24 -83 9 -2 60 -3 114 -3 l96 1 -36 -48 -37 -47 -197 -1 c-184
0 -199 -1 -218 -20 -26 -26 -25 -52 1 -76 19 -17 39 -19 168 -21 80 -1 152 -2
158 -2 9 -1 7 -14 -8 -43 l-21 -43 -130 0 c-116 0 -131 -2 -144 -20 -19 -26
-17 -52 6 -75 17 -17 33 -20 126 -20 l106 0 -7 -31 c-4 -17 -8 -39 -10 -48 -2
-14 -38 -16 -364 -18 -328 -1 -365 -3 -382 -19 -23 -21 -25 -57 -3 -78 19 -20
-22 -18 387 -18 l347 -1 0 -53 0 -54 -32 -1 c-18 0 -80 0 -137 1 -84 1 -107
-2 -122 -16 -22 -20 -24 -53 -5 -79 12 -17 28 -19 159 -20 80 0 148 -3 149 -5
11 -15 29 -82 24 -88 -4 -3 -147 -6 -320 -6 -330 -1 -337 -2 -349 -47 -4 -14
2 -29 17 -44 23 -23 24 -23 332 -23 170 0 323 -1 340 -1 24 -1 33 -8 47 -36
22 -45 22 -45 -6 -45 -46 0 -72 -56 -44 -93 9 -13 29 -17 80 -18 65 -2 68 -3
97 -39 17 -21 30 -39 30 -41 0 -2 -61 -3 -137 -1 -112 2 -139 0 -154 -14 -26
-23 -29 -51 -9 -76 17 -22 24 -22 228 -23 209 -1 211 -1 249 -27 21 -14 47
-31 58 -37 24 -12 6 -13 -377 -11 -256 1 -256 1 -272 -22 -21 -29 -20 -54 2
-75 16 -17 59 -18 627 -17 437 1 627 4 670 13 57 12 88 19 92 20 1 1 -57 58
-127 128 -115 113 -133 127 -167 130 -77 5 -168 25 -222 47 -130 53 -265 169
-334 286 -35 61 -44 82 -78 185 -19 58 -21 241 -3 317 42 183 174 358 339 450
182 100 424 109 615 22 182 -83 329 -260 379 -457 85 -331 -98 -683 -420 -806
l-70 -27 227 -219 c125 -121 235 -228 243 -238 69 -80 201 -34 201 70 0 39 -4
44 -130 168 l-111 110 85 88 c123 125 201 256 247 412 29 101 34 145 33 285 0
144 -6 186 -41 290 -51 155 -122 270 -238 386 -146 148 -317 238 -535 280 -19
4 -341 8 -715 8 -637 1 -681 0 -697 -16z"/>
<path d="M1603 1975 c-195 -43 -365 -212 -413 -410 -12 -52 -15 -178 -5 -229
21 -106 84 -218 166 -297 49 -47 159 -110 214 -124 17 -4 41 -10 55 -13 46
-11 195 -7 245 7 366 103 524 527 314 839 -77 113 -194 193 -339 230 -54 14
-169 12 -237 -3z"/>
<path d="M283 1796 c-38 -20 -43 -56 -13 -86 18 -18 33 -20 132 -20 107 0 110
1 95 18 -21 23 -22 71 -2 78 35 14 8 20 -90 20 -58 0 -113 -4 -122 -10z"/>
<path d="M279 1349 c-21 -21 -19 -51 7 -78 14 -16 134 -24 134 -9 0 4 -4 8
-10 8 -5 0 -14 10 -21 21 -9 18 -7 27 10 50 l22 29 -61 0 c-47 0 -64 -4 -81
-21z"/>
<path d="M461 941 c-27 -27 -15 -72 23 -86 50 -17 91 27 66 73 -20 34 -61 41
-89 13z"/>
<path d="M623 934 c-15 -24 -15 -29 -2 -53 11 -20 22 -26 49 -26 27 0 38 6 49
26 13 24 13 29 -2 53 -12 18 -26 26 -47 26 -21 0 -35 -8 -47 -26z"/>
</g>
</svg>
